<?xml version="1.0" encoding="UTF-8"?><svg xmlns="http://www.w3.org/2000/svg" xmlns:xlink="http://www.w3.org/1999/xlink" fill-opacity="1" color-rendering="auto" color-interpolation="auto" text-rendering="auto" stroke="black" stroke-linecap="square" width="1409" stroke-miterlimit="10" shape-rendering="auto" stroke-opacity="1" fill="black" stroke-dasharray="none" font-weight="normal" stroke-width="1" height="920" font-family="'Dialog'" font-style="normal" stroke-linejoin="miter" font-size="12px" stroke-dashoffset="0" image-rendering="auto">
  <!--Generated by ySVG 2.5-->
  <defs id="genericDefs"/>
  <g>
    <defs id="defs1">
      <clipPath clipPathUnits="userSpaceOnUse" id="clipPath1">
        <path d="M0 0 L1409 0 L1409 920 L0 920 L0 0 Z"/>
      </clipPath>
      <clipPath clipPathUnits="userSpaceOnUse" id="clipPath2">
        <path d="M175 -681 L1584 -681 L1584 239 L175 239 L175 -681 Z"/>
      </clipPath>
    </defs>
    <g fill="white" text-rendering="geometricPrecision" shape-rendering="geometricPrecision" transform="translate(-175,681)" stroke="white">
      <rect x="175" width="1409" height="920" y="-681" clip-path="url(#clipPath2)" stroke="none"/>
    </g>
    <g fill="rgb(245,245,245)" text-rendering="geometricPrecision" shape-rendering="geometricPrecision" transform="matrix(1,0,0,1,-175,681)" stroke="rgb(245,245,245)">
      <rect x="190.975" y="67.5251" clip-path="url(#clipPath2)" width="150" rx="4" ry="4" height="141.4609" stroke="none"/>
      <rect x="190.975" y="67.5251" clip-path="url(#clipPath2)" fill="rgb(235,235,235)" width="150" height="21.4609" stroke="none"/>
    </g>
    <g font-size="15px" stroke-linecap="butt" transform="matrix(1,0,0,1,-175,681)" text-rendering="geometricPrecision" font-family="sans-serif" shape-rendering="geometricPrecision" stroke-miterlimit="1.45">
      <text x="316.9438" xml:space="preserve" y="83.4484" clip-path="url(#clipPath2)" stroke="none">list</text>
      <rect x="190.975" y="67.5251" clip-path="url(#clipPath2)" fill="none" width="150" stroke-dasharray="6,2" rx="4" ry="4" height="141.4609"/>
    </g>
    <g fill="rgb(204,255,255)" text-rendering="geometricPrecision" shape-rendering="geometricPrecision" transform="matrix(1,0,0,1,-175,681)" stroke="rgb(204,255,255)">
      <rect x="205.975" width="120" height="30" y="103.986" clip-path="url(#clipPath2)" stroke="none"/>
    </g>
    <g text-rendering="geometricPrecision" stroke-miterlimit="1.45" shape-rendering="geometricPrecision" transform="matrix(1,0,0,1,-175,681)" stroke-linecap="butt">
      <rect fill="none" x="205.975" width="120" height="30" y="103.986" clip-path="url(#clipPath2)"/>
      <text x="247.7377" xml:space="preserve" y="123.1403" clip-path="url(#clipPath2)" font-family="sans-serif" stroke="none">item[]</text>
    </g>
    <g fill="rgb(204,255,255)" text-rendering="geometricPrecision" shape-rendering="geometricPrecision" transform="matrix(1,0,0,1,-175,681)" stroke="rgb(204,255,255)">
      <rect x="205.975" width="120" height="30" y="163.986" clip-path="url(#clipPath2)" stroke="none"/>
    </g>
    <g text-rendering="geometricPrecision" stroke-miterlimit="1.45" shape-rendering="geometricPrecision" transform="matrix(1,0,0,1,-175,681)" stroke-linecap="butt">
      <rect fill="none" x="205.975" width="120" height="30" y="163.986" clip-path="url(#clipPath2)"/>
      <text x="253.5736" xml:space="preserve" y="183.1403" clip-path="url(#clipPath2)" font-family="sans-serif" stroke="none">new</text>
    </g>
    <g fill="rgb(255,204,153)" text-rendering="geometricPrecision" shape-rendering="geometricPrecision" transform="matrix(1,0,0,1,-175,681)" stroke="rgb(255,204,153)">
      <rect x="921.6" width="107" height="30" y="163.986" clip-path="url(#clipPath2)" stroke="none"/>
    </g>
    <g text-rendering="geometricPrecision" stroke-miterlimit="1.45" shape-rendering="geometricPrecision" transform="matrix(1,0,0,1,-175,681)" stroke-linecap="butt">
      <rect fill="none" x="921.6" width="107" height="30" y="163.986" clip-path="url(#clipPath2)"/>
      <text x="962.6986" xml:space="preserve" y="183.1403" clip-path="url(#clipPath2)" font-family="sans-serif" stroke="none">new</text>
    </g>
    <g fill="rgb(255,204,0)" text-rendering="geometricPrecision" shape-rendering="geometricPrecision" transform="matrix(1,0,0,1,-175,681)" stroke="rgb(255,204,0)">
      <path d="M214.9751 -438.9023 L265.9755 -484.9023 L316.9755 -438.9023 L265.9755 -392.9023 Z" fill-rule="evenodd" clip-path="url(#clipPath2)" stroke="none"/>
    </g>
    <g text-rendering="geometricPrecision" stroke-miterlimit="1.45" shape-rendering="geometricPrecision" transform="matrix(1,0,0,1,-175,681)" stroke-linecap="butt">
      <path fill="none" d="M214.9751 -438.9023 L265.9755 -484.9023 L316.9755 -438.9023 L265.9755 -392.9023 Z" fill-rule="evenodd" clip-path="url(#clipPath2)"/>
      <text x="249.7035" xml:space="preserve" y="-434.748" clip-path="url(#clipPath2)" font-family="sans-serif" stroke="none">sure?</text>
    </g>
    <g fill="rgb(255,204,153)" text-rendering="geometricPrecision" shape-rendering="geometricPrecision" transform="matrix(1,0,0,1,-175,681)" stroke="rgb(255,204,153)">
      <rect x="212.475" width="107" height="30" y="-267.6914" clip-path="url(#clipPath2)" stroke="none"/>
    </g>
    <g text-rendering="geometricPrecision" stroke-miterlimit="1.45" shape-rendering="geometricPrecision" transform="matrix(1,0,0,1,-175,681)" stroke-linecap="butt">
      <rect fill="none" x="212.475" width="107" height="30" y="-267.6914" clip-path="url(#clipPath2)"/>
      <text x="247.0727" xml:space="preserve" y="-248.5371" clip-path="url(#clipPath2)" font-family="sans-serif" stroke="none">delete</text>
    </g>
    <g fill="rgb(255,204,0)" text-rendering="geometricPrecision" shape-rendering="geometricPrecision" transform="matrix(1,0,0,1,-175,681)" stroke="rgb(255,204,0)">
      <path d="M1332.2007 -420.1524 L1383.2007 -466.1524 L1434.2007 -420.1524 L1383.2007 -374.1524 Z" fill-rule="evenodd" clip-path="url(#clipPath2)" stroke="none"/>
    </g>
    <g text-rendering="geometricPrecision" stroke-miterlimit="1.45" shape-rendering="geometricPrecision" transform="matrix(1,0,0,1,-175,681)" stroke-linecap="butt">
      <path fill="none" d="M1332.2007 -420.1524 L1383.2007 -466.1524 L1434.2007 -420.1524 L1383.2007 -374.1524 Z" fill-rule="evenodd" clip-path="url(#clipPath2)"/>
      <text x="1365.6453" xml:space="preserve" y="-415.998" clip-path="url(#clipPath2)" font-family="sans-serif" stroke="none">valid?</text>
    </g>
    <g fill="rgb(255,204,153)" text-rendering="geometricPrecision" shape-rendering="geometricPrecision" transform="matrix(1,0,0,1,-175,681)" stroke="rgb(255,204,153)">
      <rect x="1329.7" width="107" height="30" y="-25.3891" clip-path="url(#clipPath2)" stroke="none"/>
    </g>
    <g text-rendering="geometricPrecision" stroke-miterlimit="1.45" shape-rendering="geometricPrecision" transform="matrix(1,0,0,1,-175,681)" stroke-linecap="butt">
      <rect fill="none" x="1329.7" width="107" height="30" y="-25.3891" clip-path="url(#clipPath2)"/>
      <text x="1369.155" xml:space="preserve" y="-6.2348" clip-path="url(#clipPath2)" font-family="sans-serif" stroke="none">save</text>
      <path fill="none" d="M325.975 178.986 L913.6 178.986" clip-path="url(#clipPath2)"/>
      <path d="M921.6 178.986 L909.6 173.986 L912.6 178.986 L909.6 183.986 Z" clip-path="url(#clipPath2)" stroke="none"/>
      <path fill="none" d="M265.975 -392.9406 L265.975 -275.6914" clip-path="url(#clipPath2)"/>
      <path d="M265.975 -267.6914 L270.975 -279.6914 L265.975 -276.6914 L260.975 -279.6914 Z" clip-path="url(#clipPath2)" stroke="none"/>
      <text x="241.2387" xml:space="preserve" y="-369.6387" clip-path="url(#clipPath2)" font-family="sans-serif" stroke="none">yes</text>
      <path fill="none" d="M265.975 -237.6914 L265.975 59.536" clip-path="url(#clipPath2)"/>
      <path d="M265.975 67.536 L270.975 55.536 L265.975 58.536 L260.975 55.536 Z" clip-path="url(#clipPath2)" stroke="none"/>
      <path fill="none" d="M1383.2 -374.159 L1383.2 -33.3891" clip-path="url(#clipPath2)"/>
      <path d="M1383.2 -25.3891 L1388.2 -37.3891 L1383.2 -34.3891 L1378.2 -37.3891 Z" clip-path="url(#clipPath2)" stroke="none"/>
      <text x="1387.2" xml:space="preserve" y="-350.8887" clip-path="url(#clipPath2)" font-family="sans-serif" stroke="none">yes</text>
    </g>
    <g fill="rgb(245,245,245)" text-rendering="geometricPrecision" shape-rendering="geometricPrecision" transform="matrix(1,0,0,1,-175,681)" stroke="rgb(245,245,245)">
      <rect x="354.2" y="-583.9414" clip-path="url(#clipPath2)" width="451.8" rx="4" ry="4" height="253.7891" stroke="none"/>
      <rect x="354.2" y="-583.9414" clip-path="url(#clipPath2)" fill="rgb(235,235,235)" width="451.8" height="21.4609" stroke="none"/>
    </g>
    <g font-size="15px" stroke-linecap="butt" transform="matrix(1,0,0,1,-175,681)" text-rendering="geometricPrecision" font-family="sans-serif" shape-rendering="geometricPrecision" stroke-miterlimit="1.45">
      <text x="737.5181" xml:space="preserve" y="-568.0181" clip-path="url(#clipPath2)" stroke="none">view-link</text>
      <rect x="354.2" y="-583.9414" clip-path="url(#clipPath2)" fill="none" width="451.8" stroke-dasharray="6,2" rx="4" ry="4" height="253.7891"/>
    </g>
    <g fill="rgb(255,204,0)" text-rendering="geometricPrecision" shape-rendering="geometricPrecision" transform="matrix(1,0,0,1,-175,681)" stroke="rgb(255,204,0)">
      <rect x="462.95" width="120" height="30" y="-532.6523" clip-path="url(#clipPath2)" stroke="none"/>
    </g>
    <g text-rendering="geometricPrecision" stroke-miterlimit="1.45" shape-rendering="geometricPrecision" transform="matrix(1,0,0,1,-175,681)" stroke-linecap="butt">
      <rect fill="none" x="462.95" width="120" height="30" y="-532.6523" clip-path="url(#clipPath2)"/>
      <text x="492.452" xml:space="preserve" y="-513.498" clip-path="url(#clipPath2)" font-family="sans-serif" stroke="none">property[]</text>
    </g>
    <g fill="rgb(204,255,255)" text-rendering="geometricPrecision" shape-rendering="geometricPrecision" transform="matrix(1,0,0,1,-175,681)" stroke="rgb(204,255,255)">
      <rect x="671" width="120" height="30" y="-532.6523" clip-path="url(#clipPath2)" stroke="none"/>
    </g>
    <g text-rendering="geometricPrecision" stroke-miterlimit="1.45" shape-rendering="geometricPrecision" transform="matrix(1,0,0,1,-175,681)" stroke-linecap="butt">
      <rect fill="none" x="671" width="120" height="30" y="-532.6523" clip-path="url(#clipPath2)"/>
      <text x="719.4805" xml:space="preserve" y="-513.498" clip-path="url(#clipPath2)" font-family="sans-serif" stroke="none">edit</text>
    </g>
    <g fill="rgb(204,255,255)" text-rendering="geometricPrecision" shape-rendering="geometricPrecision" transform="matrix(1,0,0,1,-175,681)" stroke="rgb(204,255,255)">
      <rect x="532.75" width="120" height="30" y="-453.9023" clip-path="url(#clipPath2)" stroke="none"/>
    </g>
    <g text-rendering="geometricPrecision" stroke-miterlimit="1.45" shape-rendering="geometricPrecision" transform="matrix(1,0,0,1,-175,681)" stroke-linecap="butt">
      <rect fill="none" x="532.75" width="120" height="30" y="-453.9023" clip-path="url(#clipPath2)"/>
      <text x="574.3311" xml:space="preserve" y="-434.748" clip-path="url(#clipPath2)" font-family="sans-serif" stroke="none">links[]</text>
    </g>
    <g fill="rgb(204,255,255)" text-rendering="geometricPrecision" shape-rendering="geometricPrecision" transform="matrix(1,0,0,1,-175,681)" stroke="rgb(204,255,255)">
      <rect x="671" width="120" height="30" y="-410.1523" clip-path="url(#clipPath2)" stroke="none"/>
    </g>
    <g text-rendering="geometricPrecision" stroke-miterlimit="1.45" shape-rendering="geometricPrecision" transform="matrix(1,0,0,1,-175,681)" stroke-linecap="butt">
      <rect fill="none" x="671" width="120" height="30" y="-410.1523" clip-path="url(#clipPath2)"/>
      <text x="719.7061" xml:space="preserve" y="-390.998" clip-path="url(#clipPath2)" font-family="sans-serif" stroke="none">add</text>
    </g>
    <g fill="rgb(204,255,255)" text-rendering="geometricPrecision" shape-rendering="geometricPrecision" transform="matrix(1,0,0,1,-175,681)" stroke="rgb(204,255,255)">
      <rect x="671" width="120" height="30" y="-453.9023" clip-path="url(#clipPath2)" stroke="none"/>
    </g>
    <g text-rendering="geometricPrecision" stroke-miterlimit="1.45" shape-rendering="geometricPrecision" transform="matrix(1,0,0,1,-175,681)" stroke-linecap="butt">
      <rect fill="none" x="671" width="120" height="30" y="-453.9023" clip-path="url(#clipPath2)"/>
      <text x="708.084" xml:space="preserve" y="-434.748" clip-path="url(#clipPath2)" font-family="sans-serif" stroke="none">remove</text>
    </g>
    <g fill="rgb(204,255,255)" text-rendering="geometricPrecision" shape-rendering="geometricPrecision" transform="matrix(1,0,0,1,-175,681)" stroke="rgb(204,255,255)">
      <rect x="369.2" width="120" height="30" y="-453.9023" clip-path="url(#clipPath2)" stroke="none"/>
    </g>
    <g text-rendering="geometricPrecision" stroke-miterlimit="1.45" shape-rendering="geometricPrecision" transform="matrix(1,0,0,1,-175,681)" stroke-linecap="butt">
      <rect fill="none" x="369.2" width="120" height="30" y="-453.9023" clip-path="url(#clipPath2)"/>
      <text x="410.2977" xml:space="preserve" y="-434.748" clip-path="url(#clipPath2)" font-family="sans-serif" stroke="none">delete</text>
    </g>
    <g fill="rgb(204,255,255)" text-rendering="geometricPrecision" shape-rendering="geometricPrecision" transform="matrix(1,0,0,1,-175,681)" stroke="rgb(204,255,255)">
      <rect x="369.2" width="120" height="30" y="-391.1523" clip-path="url(#clipPath2)" stroke="none"/>
    </g>
    <g text-rendering="geometricPrecision" stroke-miterlimit="1.45" shape-rendering="geometricPrecision" transform="matrix(1,0,0,1,-175,681)" stroke-linecap="butt">
      <rect fill="none" x="369.2" width="120" height="30" y="-391.1523" clip-path="url(#clipPath2)"/>
      <text x="420.3875" xml:space="preserve" y="-371.998" clip-path="url(#clipPath2)" font-family="sans-serif" stroke="none">list</text>
    </g>
    <g fill="rgb(255,204,0)" text-rendering="geometricPrecision" shape-rendering="geometricPrecision" transform="matrix(1,0,0,1,-175,681)" stroke="rgb(255,204,0)">
      <path d="M962.65 -376.1524 L1013.65 -422.1523 L1064.65 -376.1524 L1013.65 -330.1524 Z" fill-rule="evenodd" clip-path="url(#clipPath2)" stroke="none"/>
    </g>
    <g text-rendering="geometricPrecision" stroke-miterlimit="1.45" shape-rendering="geometricPrecision" transform="matrix(1,0,0,1,-175,681)" stroke-linecap="butt">
      <path fill="none" d="M962.65 -376.1524 L1013.65 -422.1523 L1064.65 -376.1524 L1013.65 -330.1524 Z" fill-rule="evenodd" clip-path="url(#clipPath2)"/>
      <text x="997.3785" xml:space="preserve" y="-371.998" clip-path="url(#clipPath2)" font-family="sans-serif" stroke="none">sure?</text>
    </g>
    <g fill="rgb(255,204,153)" text-rendering="geometricPrecision" shape-rendering="geometricPrecision" transform="matrix(1,0,0,1,-175,681)" stroke="rgb(255,204,153)">
      <rect x="960.15" width="107" height="30" y="-112.4805" clip-path="url(#clipPath2)" stroke="none"/>
    </g>
    <g text-rendering="geometricPrecision" stroke-miterlimit="1.45" shape-rendering="geometricPrecision" transform="matrix(1,0,0,1,-175,681)" stroke-linecap="butt">
      <rect fill="none" x="960.15" width="107" height="30" y="-112.4805" clip-path="url(#clipPath2)"/>
      <text x="978.2155" xml:space="preserve" y="-93.3262" clip-path="url(#clipPath2)" font-family="sans-serif" stroke="none">remove link</text>
      <path fill="none" d="M286.6235 -466.2956 L301.9037 -486.5671 L313.8155 -501.2207 L323.0708 -511.0435 L330.7037 -517.0016 L337.7481 -520.0612 L345.2379 -521.1884 L346.1736 -521.2052" clip-path="url(#clipPath2)"/>
      <path d="M354.1723 -521.3488 L342.0844 -526.1326 L345.1737 -521.1873 L342.264 -516.1342 Z" clip-path="url(#clipPath2)" stroke="none"/>
      <text x="276.8281" xml:space="preserve" y="-474.1893" clip-path="url(#clipPath2)" font-family="sans-serif" stroke="none">no</text>
      <path fill="none" d="M1390.2561 -25.3751 L1415.9501 -79.8187 L1447.9757 -148.9248 L1478.1523 -216.6055 L1505.5555 -282.1482 L1529.2609 -344.8401 L1548.3438 -403.9688 L1561.8798 -458.8213 L1568.9445 -508.6852 L1568.6133 -552.8477 L1559.9618 -590.5961 L1542.0656 -621.2177 L1514 -644 L1475.1489 -658.4677 L1426.1284 -665.0961 L1367.8633 -664.5977 L1301.2777 -657.6852 L1227.2964 -645.0714 L1146.8438 -627.4688 L1060.8441 -605.5901 L970.2222 -580.1481 L875.9023 -551.8555 L813.6082 -532.3314" clip-path="url(#clipPath2)"/>
      <path d="M805.9743 -529.9388 L818.9204 -528.7565 L814.5624 -532.6305 L815.9297 -538.2989 Z" clip-path="url(#clipPath2)" stroke="none"/>
      <text x="1405.0962" xml:space="preserve" y="-35.2191" clip-path="url(#clipPath2)" font-family="sans-serif" stroke="none">error</text>
      <path fill="none" d="M369.2 -438.9023 L324.9575 -438.9023" clip-path="url(#clipPath2)"/>
      <path d="M316.9575 -438.9023 L328.9575 -433.9023 L325.9575 -438.9023 L328.9575 -443.9023 Z" clip-path="url(#clipPath2)" stroke="none"/>
      <path fill="none" d="M429.2 -361.1523 L429.2 -84.5965 L322.5269 61.0449" clip-path="url(#clipPath2)"/>
      <path d="M317.7997 67.4989 L328.9242 60.7724 L323.1178 60.2382 L320.8567 54.8635 Z" clip-path="url(#clipPath2)" stroke="none"/>
      <path fill="none" d="M791 -425.582 L964.9358 -386.9672" clip-path="url(#clipPath2)"/>
      <path d="M972.7457 -385.2333 L962.1146 -392.7153 L963.9596 -387.1839 L959.9472 -382.9529 Z" clip-path="url(#clipPath2)" stroke="none"/>
      <path fill="none" d="M962.6312 -376.1523 L814.0078 -376.1523" clip-path="url(#clipPath2)"/>
      <path d="M806.0078 -376.1523 L818.0078 -371.1523 L815.0078 -376.1523 L818.0078 -381.1523 Z" clip-path="url(#clipPath2)" stroke="none"/>
      <text x="940.7028" xml:space="preserve" y="-345.7432" clip-path="url(#clipPath2)" font-family="sans-serif" stroke="none">no</text>
      <path fill="none" d="M1013.65 -330.1266 L1013.65 -120.4805" clip-path="url(#clipPath2)"/>
      <path d="M1013.65 -112.4805 L1018.65 -124.4805 L1013.65 -121.4805 L1008.65 -124.4805 Z" clip-path="url(#clipPath2)" stroke="none"/>
      <text x="988.9137" xml:space="preserve" y="-306.8887" clip-path="url(#clipPath2)" font-family="sans-serif" stroke="none">yes</text>
    </g>
    <g fill="rgb(245,245,245)" text-rendering="geometricPrecision" shape-rendering="geometricPrecision" transform="matrix(1,0,0,1,-175,681)" stroke="rgb(245,245,245)">
      <rect x="712.3" y="-293.9945" clip-path="url(#clipPath2)" width="150" rx="4" ry="4" height="135.2109" stroke="none"/>
      <rect x="712.3" y="-293.9945" clip-path="url(#clipPath2)" fill="rgb(235,235,235)" width="150" height="21.4609" stroke="none"/>
    </g>
    <g font-size="15px" stroke-linecap="butt" transform="matrix(1,0,0,1,-175,681)" text-rendering="geometricPrecision" font-family="sans-serif" shape-rendering="geometricPrecision" stroke-miterlimit="1.45">
      <text x="807.1481" xml:space="preserve" y="-278.0712" clip-path="url(#clipPath2)" stroke="none">choose</text>
      <rect x="712.3" y="-293.9945" clip-path="url(#clipPath2)" fill="none" width="150" stroke-dasharray="6,2" rx="4" ry="4" height="135.2109"/>
    </g>
    <g fill="rgb(204,255,255)" text-rendering="geometricPrecision" shape-rendering="geometricPrecision" transform="matrix(1,0,0,1,-175,681)" stroke="rgb(204,255,255)">
      <rect x="727.3" width="120" height="30" y="-257.5336" clip-path="url(#clipPath2)" stroke="none"/>
    </g>
    <g text-rendering="geometricPrecision" stroke-miterlimit="1.45" shape-rendering="geometricPrecision" transform="matrix(1,0,0,1,-175,681)" stroke-linecap="butt">
      <rect fill="none" x="727.3" width="120" height="30" y="-257.5336" clip-path="url(#clipPath2)"/>
      <text x="769.0627" xml:space="preserve" y="-238.3793" clip-path="url(#clipPath2)" font-family="sans-serif" stroke="none">item[]</text>
    </g>
    <g fill="rgb(204,255,255)" text-rendering="geometricPrecision" shape-rendering="geometricPrecision" transform="matrix(1,0,0,1,-175,681)" stroke="rgb(204,255,255)">
      <rect x="727.3" width="120" height="30" y="-203.7836" clip-path="url(#clipPath2)" stroke="none"/>
    </g>
    <g text-rendering="geometricPrecision" stroke-miterlimit="1.45" shape-rendering="geometricPrecision" transform="matrix(1,0,0,1,-175,681)" stroke-linecap="butt">
      <rect fill="none" x="727.3" width="120" height="30" y="-203.7836" clip-path="url(#clipPath2)"/>
      <text x="767.8644" xml:space="preserve" y="-184.6293" clip-path="url(#clipPath2)" font-family="sans-serif" stroke="none">cancel</text>
    </g>
    <g fill="rgb(255,204,153)" text-rendering="geometricPrecision" shape-rendering="geometricPrecision" transform="matrix(1,0,0,1,-175,681)" stroke="rgb(255,204,153)">
      <rect x="839.3" width="107" height="30" y="-148.9414" clip-path="url(#clipPath2)" stroke="none"/>
    </g>
    <g text-rendering="geometricPrecision" stroke-miterlimit="1.45" shape-rendering="geometricPrecision" transform="matrix(1,0,0,1,-175,681)" stroke-linecap="butt">
      <rect fill="none" x="839.3" width="107" height="30" y="-148.9414" clip-path="url(#clipPath2)"/>
      <text x="868.9875" xml:space="preserve" y="-129.7871" clip-path="url(#clipPath2)" font-family="sans-serif" stroke="none">add link</text>
    </g>
    <g fill="rgb(255,204,153)" text-rendering="geometricPrecision" shape-rendering="geometricPrecision" transform="matrix(1,0,0,1,-175,681)" stroke="rgb(255,204,153)">
      <rect x="612.75" width="107" height="30" y="-112.4805" clip-path="url(#clipPath2)" stroke="none"/>
    </g>
    <g text-rendering="geometricPrecision" stroke-miterlimit="1.45" shape-rendering="geometricPrecision" transform="matrix(1,0,0,1,-175,681)" stroke-linecap="butt">
      <rect fill="none" x="612.75" width="107" height="30" y="-112.4805" clip-path="url(#clipPath2)"/>
      <text x="653.4268" xml:space="preserve" y="-93.3262" clip-path="url(#clipPath2)" font-family="sans-serif" stroke="none">load</text>
      <path fill="none" d="M736.004 -380.1523 L762.2136 -301.5872" clip-path="url(#clipPath2)"/>
      <path d="M764.7453 -293.9984 L765.6908 -306.964 L761.8972 -302.5358 L756.2048 -303.7994 Z" clip-path="url(#clipPath2)" stroke="none"/>
      <path fill="none" d="M727.2894 -196.664 L719.4086 -196.664 L712.2772 -197.6027 L709.0681 -198.7761 L706.0967 -200.4188 L703.363 -202.5308 L700.867 -205.1122 L696.5882 -211.6831 L693.2602 -220.1313 L690.8831 -230.4569 L689.4568 -242.6599 L688.9814 -256.7403 L688.9814 -322.131" clip-path="url(#clipPath2)"/>
      <path d="M688.9814 -330.131 L683.9814 -318.131 L688.9814 -321.131 L693.9814 -318.131 Z" clip-path="url(#clipPath2)" stroke="none"/>
      <path fill="none" d="M847.2809 -242.3994 L856.4519 -241.7701 L866.0953 -239.4794 L870.3606 -237.7615 L874.2551 -235.6617 L877.7786 -233.1803 L880.9312 -230.317 L883.713 -227.0719 L886.1238 -223.4451 L889.8328 -215.0462 L892.0582 -205.1202 L892.8 -193.6671 L892.8 -156.9603" clip-path="url(#clipPath2)"/>
      <path d="M892.8 -148.9603 L897.8 -160.9603 L892.8 -157.9603 L887.8 -160.9603 Z" clip-path="url(#clipPath2)" stroke="none"/>
      <path fill="none" d="M319.3059 103.986 L666.25 6.4035 L666.25 -74.4805" clip-path="url(#clipPath2)"/>
      <path d="M666.25 -82.4805 L661.25 -70.4805 L666.25 -73.4805 L671.25 -70.4805 Z" clip-path="url(#clipPath2)" stroke="none"/>
      <path fill="none" d="M592.75 -423.9023 L592.75 -264.8763 L593.2668 -231.329 L594.8172 -201.8795 L597.4012 -176.5278 L601.0187 -155.2739 L603.2151 -146.1836 L605.6699 -138.1178 L608.3831 -131.0765 L611.3547 -125.0596 L614.5847 -120.0671 L616.9239 -117.4063 L617.0057 -117.3488" clip-path="url(#clipPath2)"/>
      <path d="M623.3066 -112.4194 L616.9363 -123.7516 L616.2181 -117.965 L610.7744 -115.8756 Z" clip-path="url(#clipPath2)" stroke="none"/>
      <path fill="none" d="M960.15 -97.4805 L727.75 -97.4805" clip-path="url(#clipPath2)"/>
      <path d="M719.75 -97.4805 L731.75 -92.4805 L728.75 -97.4805 L731.75 -102.4805 Z" clip-path="url(#clipPath2)" stroke="none"/>
      <path fill="none" d="M839.3 -125.3311 L727.6484 -107.3619" clip-path="url(#clipPath2)"/>
      <path d="M719.75 -106.0908 L732.392 -103.061 L728.6357 -107.5208 L730.803 -112.934 Z" clip-path="url(#clipPath2)" stroke="none"/>
      <path fill="none" d="M1329.7 -10.3891 L734.9 -10.3891 L683.0262 -76.1977" clip-path="url(#clipPath2)"/>
      <path d="M678.0738 -82.4805 L681.5756 -69.961 L683.6453 -75.4123 L689.4291 -76.1515 Z" clip-path="url(#clipPath2)" stroke="none"/>
      <text x="1296.1545" xml:space="preserve" y="-36.2348" clip-path="url(#clipPath2)" font-family="sans-serif" stroke="none">ok</text>
      <path fill="none" d="M666.25 -112.4805 L666.25 -322.1402" clip-path="url(#clipPath2)"/>
      <path d="M666.25 -330.1402 L661.25 -318.1402 L666.25 -321.1402 L671.25 -318.1402 Z" clip-path="url(#clipPath2)" stroke="none"/>
    </g>
    <g fill="rgb(245,245,245)" text-rendering="geometricPrecision" shape-rendering="geometricPrecision" transform="matrix(1,0,0,1,-175,681)" stroke="rgb(245,245,245)">
      <rect x="1121.8" y="-583.9414" clip-path="url(#clipPath2)" width="150" rx="4" ry="4" height="193.7891" stroke="none"/>
      <rect x="1121.8" y="-583.9414" clip-path="url(#clipPath2)" fill="rgb(235,235,235)" width="150" height="21.4609" stroke="none"/>
    </g>
    <g font-size="15px" stroke-linecap="butt" transform="matrix(1,0,0,1,-175,681)" text-rendering="geometricPrecision" font-family="sans-serif" shape-rendering="geometricPrecision" stroke-miterlimit="1.45">
      <text x="1158.7136" xml:space="preserve" y="-568.0181" clip-path="url(#clipPath2)" stroke="none">edit-properties</text>
      <rect x="1121.8" y="-583.9414" clip-path="url(#clipPath2)" fill="none" width="150" stroke-dasharray="6,2" rx="4" ry="4" height="193.7891"/>
    </g>
    <g fill="rgb(204,153,255)" text-rendering="geometricPrecision" shape-rendering="geometricPrecision" transform="matrix(1,0,0,1,-175,681)" stroke="rgb(204,153,255)">
      <rect x="1136.8" width="120" height="30" y="-547.4805" clip-path="url(#clipPath2)" stroke="none"/>
    </g>
    <g text-rendering="geometricPrecision" stroke-miterlimit="1.45" shape-rendering="geometricPrecision" transform="matrix(1,0,0,1,-175,681)" stroke-linecap="butt">
      <rect fill="none" x="1136.8" width="120" height="30" y="-547.4805" clip-path="url(#clipPath2)"/>
      <text x="1166.302" xml:space="preserve" y="-528.3262" clip-path="url(#clipPath2)" font-family="sans-serif" stroke="none">property[]</text>
    </g>
    <g fill="rgb(204,255,255)" text-rendering="geometricPrecision" shape-rendering="geometricPrecision" transform="matrix(1,0,0,1,-175,681)" stroke="rgb(204,255,255)">
      <rect x="1136.8" width="120" height="30" y="-435.1523" clip-path="url(#clipPath2)" stroke="none"/>
    </g>
    <g text-rendering="geometricPrecision" stroke-miterlimit="1.45" shape-rendering="geometricPrecision" transform="matrix(1,0,0,1,-175,681)" stroke-linecap="butt">
      <rect fill="none" x="1136.8" width="120" height="30" y="-435.1523" clip-path="url(#clipPath2)"/>
      <text x="1182.7551" xml:space="preserve" y="-415.998" clip-path="url(#clipPath2)" font-family="sans-serif" stroke="none">save</text>
    </g>
    <g fill="rgb(204,255,255)" text-rendering="geometricPrecision" shape-rendering="geometricPrecision" transform="matrix(1,0,0,1,-175,681)" stroke="rgb(204,255,255)">
      <rect x="1136.8" width="120" height="30" y="-474.4805" clip-path="url(#clipPath2)" stroke="none"/>
    </g>
    <g text-rendering="geometricPrecision" stroke-miterlimit="1.45" shape-rendering="geometricPrecision" transform="matrix(1,0,0,1,-175,681)" stroke-linecap="butt">
      <rect fill="none" x="1136.8" width="120" height="30" y="-474.4805" clip-path="url(#clipPath2)"/>
      <text x="1177.3645" xml:space="preserve" y="-455.3262" clip-path="url(#clipPath2)" font-family="sans-serif" stroke="none">cancel</text>
      <path fill="none" d="M1360.515 -445.6983 L1350.5286 -456.9443 L1343.3705 -463.9996 L1335.2618 -470.1142 L1326.2026 -475.2881 L1316.193 -479.5212 L1305.2327 -482.8137 L1293.3219 -485.1655 L1280.4604 -486.5765 L1279.7964 -486.5992" clip-path="url(#clipPath2)"/>
      <path d="M1271.801 -486.8714 L1283.6239 -481.4659 L1280.7958 -486.5651 L1283.9642 -491.4601 Z" clip-path="url(#clipPath2)" stroke="none"/>
      <text x="1341.0012" xml:space="preserve" y="-477.0078" clip-path="url(#clipPath2)" font-family="sans-serif" stroke="none">no</text>
      <path fill="none" d="M791 -513.71 L1113.77 -492.5024" clip-path="url(#clipPath2)"/>
      <path d="M1121.7528 -491.9779 L1110.1064 -497.7539 L1112.7722 -492.5679 L1109.4508 -487.7754 Z" clip-path="url(#clipPath2)" stroke="none"/>
      <path fill="none" d="M1256.8 -420.1523 L1324.1895 -420.1523" clip-path="url(#clipPath2)"/>
      <path d="M1332.1895 -420.1523 L1320.1895 -425.1523 L1323.1895 -420.1523 L1320.1895 -415.1523 Z" clip-path="url(#clipPath2)" stroke="none"/>
      <path fill="none" d="M1136.7635 -459.2436 L814.0067 -457.9699" clip-path="url(#clipPath2)"/>
      <path d="M806.0068 -457.9383 L818.0264 -452.9857 L815.0067 -457.9738 L817.9869 -462.9857 Z" clip-path="url(#clipPath2)" stroke="none"/>
    </g>
    <g fill="rgb(245,245,245)" text-rendering="geometricPrecision" shape-rendering="geometricPrecision" transform="matrix(1,0,0,1,-175,681)" stroke="rgb(245,245,245)">
      <rect x="1110.7" y="13.7946" clip-path="url(#clipPath2)" width="150" rx="4" ry="4" height="193.7891" stroke="none"/>
      <rect x="1110.7" y="13.7946" clip-path="url(#clipPath2)" fill="rgb(235,235,235)" width="150" height="21.4609" stroke="none"/>
    </g>
    <g font-size="15px" stroke-linecap="butt" transform="matrix(1,0,0,1,-175,681)" text-rendering="geometricPrecision" font-family="sans-serif" shape-rendering="geometricPrecision" stroke-miterlimit="1.45">
      <text x="1147.6135" xml:space="preserve" y="29.7179" clip-path="url(#clipPath2)" stroke="none">edit-properties</text>
      <rect x="1110.7" y="13.7946" clip-path="url(#clipPath2)" fill="none" width="150" stroke-dasharray="6,2" rx="4" ry="4" height="193.7891"/>
    </g>
    <g fill="rgb(204,153,255)" text-rendering="geometricPrecision" shape-rendering="geometricPrecision" transform="matrix(1,0,0,1,-175,681)" stroke="rgb(204,153,255)">
      <rect x="1125.7" width="120" height="30" y="50.2555" clip-path="url(#clipPath2)" stroke="none"/>
    </g>
    <g text-rendering="geometricPrecision" stroke-miterlimit="1.45" shape-rendering="geometricPrecision" transform="matrix(1,0,0,1,-175,681)" stroke-linecap="butt">
      <rect fill="none" x="1125.7" width="120" height="30" y="50.2555" clip-path="url(#clipPath2)"/>
      <text x="1155.2019" xml:space="preserve" y="69.4098" clip-path="url(#clipPath2)" font-family="sans-serif" stroke="none">property[]</text>
    </g>
    <g fill="rgb(204,255,255)" text-rendering="geometricPrecision" shape-rendering="geometricPrecision" transform="matrix(1,0,0,1,-175,681)" stroke="rgb(204,255,255)">
      <rect x="1125.7" width="120" height="30" y="162.5837" clip-path="url(#clipPath2)" stroke="none"/>
    </g>
    <g text-rendering="geometricPrecision" stroke-miterlimit="1.45" shape-rendering="geometricPrecision" transform="matrix(1,0,0,1,-175,681)" stroke-linecap="butt">
      <rect fill="none" x="1125.7" width="120" height="30" y="162.5837" clip-path="url(#clipPath2)"/>
      <text x="1171.655" xml:space="preserve" y="181.7379" clip-path="url(#clipPath2)" font-family="sans-serif" stroke="none">save</text>
    </g>
    <g fill="rgb(204,255,255)" text-rendering="geometricPrecision" shape-rendering="geometricPrecision" transform="matrix(1,0,0,1,-175,681)" stroke="rgb(204,255,255)">
      <rect x="1125.7" width="120" height="30" y="123.2555" clip-path="url(#clipPath2)" stroke="none"/>
    </g>
    <g text-rendering="geometricPrecision" stroke-miterlimit="1.45" shape-rendering="geometricPrecision" transform="matrix(1,0,0,1,-175,681)" stroke-linecap="butt">
      <rect fill="none" x="1125.7" width="120" height="30" y="123.2555" clip-path="url(#clipPath2)"/>
      <text x="1166.2644" xml:space="preserve" y="142.4098" clip-path="url(#clipPath2)" font-family="sans-serif" stroke="none">cancel</text>
    </g>
    <g fill="rgb(255,204,0)" text-rendering="geometricPrecision" shape-rendering="geometricPrecision" transform="matrix(1,0,0,1,-175,681)" stroke="rgb(255,204,0)">
      <path d="M1334.7003 177.5836 L1385.699 131.5836 L1436.699 177.5836 L1385.699 223.5836 Z" fill-rule="evenodd" clip-path="url(#clipPath2)" stroke="none"/>
    </g>
    <g text-rendering="geometricPrecision" stroke-miterlimit="1.45" shape-rendering="geometricPrecision" transform="matrix(1,0,0,1,-175,681)" stroke-linecap="butt">
      <path fill="none" d="M1334.7003 177.5836 L1385.699 131.5836 L1436.699 177.5836 L1385.699 223.5836 Z" fill-rule="evenodd" clip-path="url(#clipPath2)"/>
      <text x="1368.1453" xml:space="preserve" y="181.7379" clip-path="url(#clipPath2)" font-family="sans-serif" stroke="none">valid?</text>
      <path fill="none" d="M1028.6 178.986 L1102.6735 178.986" clip-path="url(#clipPath2)"/>
      <path d="M1110.6735 178.986 L1098.6735 173.986 L1101.6735 178.986 L1098.6735 183.986 Z" clip-path="url(#clipPath2)" stroke="none"/>
      <path fill="none" d="M1125.7 138.2555 L348.9858 138.2555" clip-path="url(#clipPath2)"/>
      <path d="M340.9858 138.2555 L352.9858 143.2555 L349.9858 138.2555 L352.9858 133.2555 Z" clip-path="url(#clipPath2)" stroke="none"/>
      <path fill="none" d="M1245.7 177.5836 L1326.6697 177.5836" clip-path="url(#clipPath2)"/>
      <path d="M1334.6697 177.5836 L1322.6697 172.5836 L1325.6697 177.5836 L1322.6697 182.5836 Z" clip-path="url(#clipPath2)" stroke="none"/>
      <path fill="none" d="M1385.0951 132.1049 L1383.5059 12.6102" clip-path="url(#clipPath2)"/>
      <path d="M1383.3995 4.6109 L1378.5594 16.6763 L1383.5192 13.6101 L1388.5586 16.5434 Z" clip-path="url(#clipPath2)" stroke="none"/>
      <text x="1404.5367" xml:space="preserve" y="121.7536" clip-path="url(#clipPath2)" font-family="sans-serif" stroke="none">yes</text>
      <path fill="none" d="M1352.817 161.1924 L1352.2665 160.9492 L1346.4445 158.5 L1340.1641 155.9883 L1333.368 153.4062 L1325.9991 150.7461 L1318 148 L1309.3325 145.1628 L1300.0347 142.2396 L1290.1641 139.2383 L1279.7778 136.1667 L1268.9331 133.0325 L1268.415 132.8857" clip-path="url(#clipPath2)"/>
      <path d="M1260.7185 130.7032 L1270.8993 138.7872 L1269.3771 133.1585 L1273.6273 129.1665 Z" clip-path="url(#clipPath2)" stroke="none"/>
      <text x="1319.375" xml:space="preserve" y="155.7565" clip-path="url(#clipPath2)" font-family="sans-serif" stroke="none">no</text>
    </g>
  </g>
</svg>
