<?xml version="1.0" encoding="UTF-8"?><svg xmlns="http://www.w3.org/2000/svg" xmlns:xlink="http://www.w3.org/1999/xlink" fill-opacity="1" color-rendering="auto" color-interpolation="auto" text-rendering="auto" stroke="black" stroke-linecap="square" width="1064" stroke-miterlimit="10" shape-rendering="auto" stroke-opacity="1" fill="black" stroke-dasharray="none" font-weight="normal" stroke-width="1" height="798" font-family="'Dialog'" font-style="normal" stroke-linejoin="miter" font-size="12px" stroke-dashoffset="0" image-rendering="auto">
  <!--Generated by ySVG 2.5-->
  <defs id="genericDefs"/>
  <g>
    <defs id="defs1">
      <clipPath clipPathUnits="userSpaceOnUse" id="clipPath1">
        <path d="M0 0 L1064 0 L1064 798 L0 798 L0 0 Z"/>
      </clipPath>
      <clipPath clipPathUnits="userSpaceOnUse" id="clipPath2">
        <path d="M125 -248 L1189 -248 L1189 550 L125 550 L125 -248 Z"/>
      </clipPath>
    </defs>
    <g fill="white" text-rendering="geometricPrecision" shape-rendering="geometricPrecision" transform="translate(-125,248)" stroke="white">
      <rect x="125" width="1064" height="798" y="-248" clip-path="url(#clipPath2)" stroke="none"/>
    </g>
    <g fill="rgb(245,245,245)" text-rendering="geometricPrecision" shape-rendering="geometricPrecision" transform="matrix(1,0,0,1,-125,248)" stroke="rgb(245,245,245)">
      <rect x="140.5" y="75.3281" clip-path="url(#clipPath2)" width="150" rx="4" ry="4" height="141.4609" stroke="none"/>
      <rect x="140.5" y="75.3281" clip-path="url(#clipPath2)" fill="rgb(235,235,235)" width="150" height="21.4609" stroke="none"/>
    </g>
    <g font-size="15px" stroke-linecap="butt" transform="matrix(1,0,0,1,-125,248)" text-rendering="geometricPrecision" font-family="sans-serif" shape-rendering="geometricPrecision" stroke-miterlimit="1.45">
      <text x="266.4688" xml:space="preserve" y="91.2515" clip-path="url(#clipPath2)" stroke="none">list</text>
      <rect x="140.5" y="75.3281" clip-path="url(#clipPath2)" fill="none" width="150" stroke-dasharray="6,2" rx="4" ry="4" height="141.4609"/>
    </g>
    <g fill="rgb(204,255,255)" text-rendering="geometricPrecision" shape-rendering="geometricPrecision" transform="matrix(1,0,0,1,-125,248)" stroke="rgb(204,255,255)">
      <rect x="155.5" width="120" height="30" y="111.7891" clip-path="url(#clipPath2)" stroke="none"/>
    </g>
    <g text-rendering="geometricPrecision" stroke-miterlimit="1.45" shape-rendering="geometricPrecision" transform="matrix(1,0,0,1,-125,248)" stroke-linecap="butt">
      <rect fill="none" x="155.5" width="120" height="30" y="111.7891" clip-path="url(#clipPath2)"/>
      <text x="197.2627" xml:space="preserve" y="130.9434" clip-path="url(#clipPath2)" font-family="sans-serif" stroke="none">item[]</text>
    </g>
    <g fill="rgb(204,255,255)" text-rendering="geometricPrecision" shape-rendering="geometricPrecision" transform="matrix(1,0,0,1,-125,248)" stroke="rgb(204,255,255)">
      <rect x="155.5" width="120" height="30" y="171.7891" clip-path="url(#clipPath2)" stroke="none"/>
    </g>
    <g text-rendering="geometricPrecision" stroke-miterlimit="1.45" shape-rendering="geometricPrecision" transform="matrix(1,0,0,1,-125,248)" stroke-linecap="butt">
      <rect fill="none" x="155.5" width="120" height="30" y="171.7891" clip-path="url(#clipPath2)"/>
      <text x="204.2061" xml:space="preserve" y="190.9434" clip-path="url(#clipPath2)" font-family="sans-serif" stroke="none">add</text>
    </g>
    <g fill="rgb(255,204,0)" text-rendering="geometricPrecision" shape-rendering="geometricPrecision" transform="matrix(1,0,0,1,-125,248)" stroke="rgb(255,204,0)">
      <rect x="868" width="107" height="30" y="166.0195" clip-path="url(#clipPath2)" stroke="none"/>
    </g>
    <g text-rendering="geometricPrecision" stroke-miterlimit="1.45" shape-rendering="geometricPrecision" transform="matrix(1,0,0,1,-125,248)" stroke-linecap="butt">
      <rect fill="none" x="868" width="107" height="30" y="166.0195" clip-path="url(#clipPath2)"/>
      <text x="885.5029" xml:space="preserve" y="185.1738" clip-path="url(#clipPath2)" font-family="sans-serif" stroke="none">get defaults</text>
      <path fill="none" d="M275.5 186.2987 L860.0002 181.5221" clip-path="url(#clipPath2)"/>
      <path d="M868 181.4567 L855.9595 176.555 L859.0003 181.5303 L856.0413 186.5546 Z" clip-path="url(#clipPath2)" stroke="none"/>
    </g>
    <g fill="rgb(245,245,245)" text-rendering="geometricPrecision" shape-rendering="geometricPrecision" transform="matrix(1,0,0,1,-125,248)" stroke="rgb(245,245,245)">
      <rect x="1005" y="-17.7305" clip-path="url(#clipPath2)" width="150" rx="4" ry="4" height="219.9609" stroke="none"/>
      <rect x="1005" y="-17.7305" clip-path="url(#clipPath2)" fill="rgb(235,235,235)" width="150" height="21.4609" stroke="none"/>
    </g>
    <g font-size="15px" stroke-linecap="butt" transform="matrix(1,0,0,1,-125,248)" text-rendering="geometricPrecision" font-family="sans-serif" shape-rendering="geometricPrecision" stroke-miterlimit="1.45">
      <text x="1041.9136" xml:space="preserve" y="-1.8071" clip-path="url(#clipPath2)" stroke="none">edit-properties</text>
      <rect x="1005" y="-17.7305" clip-path="url(#clipPath2)" fill="none" width="150" stroke-dasharray="6,2" rx="4" ry="4" height="219.9609"/>
    </g>
    <g fill="rgb(204,153,255)" text-rendering="geometricPrecision" shape-rendering="geometricPrecision" transform="matrix(1,0,0,1,-125,248)" stroke="rgb(204,153,255)">
      <rect x="1020" width="120" height="30" y="18.7305" clip-path="url(#clipPath2)" stroke="none"/>
    </g>
    <g text-rendering="geometricPrecision" stroke-miterlimit="1.45" shape-rendering="geometricPrecision" transform="matrix(1,0,0,1,-125,248)" stroke-linecap="butt">
      <rect fill="none" x="1020" width="120" height="30" y="18.7305" clip-path="url(#clipPath2)"/>
      <text x="1049.502" xml:space="preserve" y="37.8848" clip-path="url(#clipPath2)" font-family="sans-serif" stroke="none">property[]</text>
    </g>
    <g fill="rgb(204,255,255)" text-rendering="geometricPrecision" shape-rendering="geometricPrecision" transform="matrix(1,0,0,1,-125,248)" stroke="rgb(204,255,255)">
      <rect x="1020" width="120" height="30" y="131.0586" clip-path="url(#clipPath2)" stroke="none"/>
    </g>
    <g text-rendering="geometricPrecision" stroke-miterlimit="1.45" shape-rendering="geometricPrecision" transform="matrix(1,0,0,1,-125,248)" stroke-linecap="butt">
      <rect fill="none" x="1020" width="120" height="30" y="131.0586" clip-path="url(#clipPath2)"/>
      <text x="1065.9551" xml:space="preserve" y="150.2129" clip-path="url(#clipPath2)" font-family="sans-serif" stroke="none">save</text>
    </g>
    <g fill="rgb(204,255,255)" text-rendering="geometricPrecision" shape-rendering="geometricPrecision" transform="matrix(1,0,0,1,-125,248)" stroke="rgb(204,255,255)">
      <rect x="1020" width="120" height="30" y="91.7305" clip-path="url(#clipPath2)" stroke="none"/>
    </g>
    <g text-rendering="geometricPrecision" stroke-miterlimit="1.45" shape-rendering="geometricPrecision" transform="matrix(1,0,0,1,-125,248)" stroke-linecap="butt">
      <rect fill="none" x="1020" width="120" height="30" y="91.7305" clip-path="url(#clipPath2)"/>
      <text x="1060.5645" xml:space="preserve" y="110.8848" clip-path="url(#clipPath2)" font-family="sans-serif" stroke="none">cancel</text>
    </g>
    <g fill="rgb(255,204,0)" text-rendering="geometricPrecision" shape-rendering="geometricPrecision" transform="matrix(1,0,0,1,-125,248)" stroke="rgb(255,204,0)">
      <path d="M435.125 355.2109 L486.125 309.2109 L537.125 355.2109 L486.125 401.2109 Z" fill-rule="evenodd" clip-path="url(#clipPath2)" stroke="none"/>
    </g>
    <g text-rendering="geometricPrecision" stroke-miterlimit="1.45" shape-rendering="geometricPrecision" transform="matrix(1,0,0,1,-125,248)" stroke-linecap="butt">
      <path fill="none" d="M435.125 355.2109 L486.125 309.2109 L537.125 355.2109 L486.125 401.2109 Z" fill-rule="evenodd" clip-path="url(#clipPath2)"/>
      <text x="469.8535" xml:space="preserve" y="359.3652" clip-path="url(#clipPath2)" font-family="sans-serif" stroke="none">sure?</text>
    </g>
    <g fill="rgb(255,204,153)" text-rendering="geometricPrecision" shape-rendering="geometricPrecision" transform="matrix(1,0,0,1,-125,248)" stroke="rgb(255,204,153)">
      <rect x="261.375" width="107" height="30" y="340.2109" clip-path="url(#clipPath2)" stroke="none"/>
    </g>
    <g text-rendering="geometricPrecision" stroke-miterlimit="1.45" shape-rendering="geometricPrecision" transform="matrix(1,0,0,1,-125,248)" stroke-linecap="butt">
      <rect fill="none" x="261.375" width="107" height="30" y="340.2109" clip-path="url(#clipPath2)"/>
      <text x="295.9727" xml:space="preserve" y="359.3652" clip-path="url(#clipPath2)" font-family="sans-serif" stroke="none">delete</text>
    </g>
    <g fill="rgb(255,204,0)" text-rendering="geometricPrecision" shape-rendering="geometricPrecision" transform="matrix(1,0,0,1,-125,248)" stroke="rgb(255,204,0)">
      <path d="M1029 284.9805 L1080 238.9805 L1131 284.9805 L1080 330.9805 Z" fill-rule="evenodd" clip-path="url(#clipPath2)" stroke="none"/>
    </g>
    <g text-rendering="geometricPrecision" stroke-miterlimit="1.45" shape-rendering="geometricPrecision" transform="matrix(1,0,0,1,-125,248)" stroke-linecap="butt">
      <path fill="none" d="M1029 284.9805 L1080 238.9805 L1131 284.9805 L1080 330.9805 Z" fill-rule="evenodd" clip-path="url(#clipPath2)"/>
      <text x="1062.4453" xml:space="preserve" y="289.1348" clip-path="url(#clipPath2)" font-family="sans-serif" stroke="none">valid?</text>
    </g>
    <g fill="rgb(255,204,153)" text-rendering="geometricPrecision" shape-rendering="geometricPrecision" transform="matrix(1,0,0,1,-125,248)" stroke="rgb(255,204,153)">
      <rect x="1026.5" width="107" height="30" y="408.9023" clip-path="url(#clipPath2)" stroke="none"/>
    </g>
    <g text-rendering="geometricPrecision" stroke-miterlimit="1.45" shape-rendering="geometricPrecision" transform="matrix(1,0,0,1,-125,248)" stroke-linecap="butt">
      <rect fill="none" x="1026.5" width="107" height="30" y="408.9023" clip-path="url(#clipPath2)"/>
      <text x="1029.7295" xml:space="preserve" y="428.0566" clip-path="url(#clipPath2)" font-family="sans-serif" stroke="none">create or update</text>
      <path fill="none" d="M948.2828 166.0195 L997.9966 138.1768" clip-path="url(#clipPath2)"/>
      <path d="M1004.9765 134.2677 L992.0635 135.769 L997.1241 138.6655 L996.95 144.4938 Z" clip-path="url(#clipPath2)" stroke="none"/>
      <path fill="none" d="M435.1597 355.2109 L376.375 355.2109" clip-path="url(#clipPath2)"/>
      <path d="M368.375 355.2109 L380.375 360.2109 L377.375 355.2109 L380.375 350.2109 Z" clip-path="url(#clipPath2)" stroke="none"/>
      <text x="402.2637" xml:space="preserve" y="348.3809" clip-path="url(#clipPath2)" font-family="sans-serif" stroke="none">yes</text>
      <path fill="none" d="M307.748 340.2109 L252.5466 224.0296" clip-path="url(#clipPath2)"/>
      <path d="M249.1133 216.8038 L249.747 229.7883 L252.9757 224.9329 L258.7793 225.4968 Z" clip-path="url(#clipPath2)" stroke="none"/>
      <path fill="none" d="M1080 161.0586 L1080 230.9636" clip-path="url(#clipPath2)"/>
      <path d="M1080 238.9636 L1085 226.9636 L1080 229.9636 L1075 226.9636 Z" clip-path="url(#clipPath2)" stroke="none"/>
      <path fill="none" d="M1106.6135 263.0322 L1146.55 230.0965 L1152.9309 224.4954 L1158.4609 218.9184 L1163.1403 213.3654 L1166.9688 207.8365 L1169.9465 202.3317 L1172.0735 196.851 L1173.3496 191.3943 L1173.775 185.9618 L1173.3496 180.5533 L1172.0735 175.1688 L1169.9465 169.8085 L1166.9688 164.4722 L1163.1403 159.16 L1160.5851 156.2724 L1160.5127 156.2034" clip-path="url(#clipPath2)"/>
      <path d="M1154.9131 150.4899 L1159.7416 162.5599 L1161.2126 156.9176 L1166.8834 155.5604 Z" clip-path="url(#clipPath2)" stroke="none"/>
      <text x="1143.125" xml:space="preserve" y="249.7092" clip-path="url(#clipPath2)" font-family="sans-serif" stroke="none">no</text>
      <path fill="none" d="M1080 331.0051 L1080 400.9023" clip-path="url(#clipPath2)"/>
      <path d="M1080 408.9023 L1085 396.9023 L1080 399.9023 L1075 396.9023 Z" clip-path="url(#clipPath2)" stroke="none"/>
      <text x="1084" xml:space="preserve" y="354.2441" clip-path="url(#clipPath2)" font-family="sans-serif" stroke="none">yes</text>
    </g>
    <g fill="rgb(245,245,245)" text-rendering="geometricPrecision" shape-rendering="geometricPrecision" transform="matrix(1,0,0,1,-125,248)" stroke="rgb(245,245,245)">
      <rect x="446.75" y="-107.9414" clip-path="url(#clipPath2)" width="288.25" rx="4" ry="4" height="238.9609" stroke="none"/>
      <rect x="446.75" y="-107.9414" clip-path="url(#clipPath2)" fill="rgb(235,235,235)" width="288.25" height="21.4609" stroke="none"/>
    </g>
    <g font-size="15px" stroke-linecap="butt" transform="matrix(1,0,0,1,-125,248)" text-rendering="geometricPrecision" font-family="sans-serif" shape-rendering="geometricPrecision" stroke-miterlimit="1.45">
      <text x="666.5181" xml:space="preserve" y="-92.0181" clip-path="url(#clipPath2)" stroke="none">view-link</text>
      <rect x="446.75" y="-107.9414" clip-path="url(#clipPath2)" fill="none" width="288.25" stroke-dasharray="6,2" rx="4" ry="4" height="238.9609"/>
    </g>
    <g fill="rgb(255,204,0)" text-rendering="geometricPrecision" shape-rendering="geometricPrecision" transform="matrix(1,0,0,1,-125,248)" stroke="rgb(255,204,0)">
      <rect x="461.75" width="120" height="30" y="-71.4805" clip-path="url(#clipPath2)" stroke="none"/>
    </g>
    <g text-rendering="geometricPrecision" stroke-miterlimit="1.45" shape-rendering="geometricPrecision" transform="matrix(1,0,0,1,-125,248)" stroke-linecap="butt">
      <rect fill="none" x="461.75" width="120" height="30" y="-71.4805" clip-path="url(#clipPath2)"/>
      <text x="491.252" xml:space="preserve" y="-52.3262" clip-path="url(#clipPath2)" font-family="sans-serif" stroke="none">property[]</text>
    </g>
    <g fill="rgb(204,255,255)" text-rendering="geometricPrecision" shape-rendering="geometricPrecision" transform="matrix(1,0,0,1,-125,248)" stroke="rgb(204,255,255)">
      <rect x="600" width="120" height="30" y="-71.4805" clip-path="url(#clipPath2)" stroke="none"/>
    </g>
    <g text-rendering="geometricPrecision" stroke-miterlimit="1.45" shape-rendering="geometricPrecision" transform="matrix(1,0,0,1,-125,248)" stroke-linecap="butt">
      <rect fill="none" x="600" width="120" height="30" y="-71.4805" clip-path="url(#clipPath2)"/>
      <text x="648.4805" xml:space="preserve" y="-52.3262" clip-path="url(#clipPath2)" font-family="sans-serif" stroke="none">edit</text>
    </g>
    <g fill="rgb(204,255,255)" text-rendering="geometricPrecision" shape-rendering="geometricPrecision" transform="matrix(1,0,0,1,-125,248)" stroke="rgb(204,255,255)">
      <rect x="461.75" width="120" height="30" y="-17.7305" clip-path="url(#clipPath2)" stroke="none"/>
    </g>
    <g text-rendering="geometricPrecision" stroke-miterlimit="1.45" shape-rendering="geometricPrecision" transform="matrix(1,0,0,1,-125,248)" stroke-linecap="butt">
      <rect fill="none" x="461.75" width="120" height="30" y="-17.7305" clip-path="url(#clipPath2)"/>
      <text x="503.3311" xml:space="preserve" y="1.4238" clip-path="url(#clipPath2)" font-family="sans-serif" stroke="none">links[]</text>
    </g>
    <g fill="rgb(204,255,255)" text-rendering="geometricPrecision" shape-rendering="geometricPrecision" transform="matrix(1,0,0,1,-125,248)" stroke="rgb(204,255,255)">
      <rect x="600" width="120" height="30" y="26.0195" clip-path="url(#clipPath2)" stroke="none"/>
    </g>
    <g text-rendering="geometricPrecision" stroke-miterlimit="1.45" shape-rendering="geometricPrecision" transform="matrix(1,0,0,1,-125,248)" stroke-linecap="butt">
      <rect fill="none" x="600" width="120" height="30" y="26.0195" clip-path="url(#clipPath2)"/>
      <text x="648.7061" xml:space="preserve" y="45.1738" clip-path="url(#clipPath2)" font-family="sans-serif" stroke="none">add</text>
    </g>
    <g fill="rgb(204,255,255)" text-rendering="geometricPrecision" shape-rendering="geometricPrecision" transform="matrix(1,0,0,1,-125,248)" stroke="rgb(204,255,255)">
      <rect x="600" width="120" height="30" y="-17.7305" clip-path="url(#clipPath2)" stroke="none"/>
    </g>
    <g text-rendering="geometricPrecision" stroke-miterlimit="1.45" shape-rendering="geometricPrecision" transform="matrix(1,0,0,1,-125,248)" stroke-linecap="butt">
      <rect fill="none" x="600" width="120" height="30" y="-17.7305" clip-path="url(#clipPath2)"/>
      <text x="637.084" xml:space="preserve" y="1.4238" clip-path="url(#clipPath2)" font-family="sans-serif" stroke="none">remove</text>
    </g>
    <g fill="rgb(204,255,255)" text-rendering="geometricPrecision" shape-rendering="geometricPrecision" transform="matrix(1,0,0,1,-125,248)" stroke="rgb(204,255,255)">
      <rect x="461.75" width="120" height="30" y="86.0195" clip-path="url(#clipPath2)" stroke="none"/>
    </g>
    <g text-rendering="geometricPrecision" stroke-miterlimit="1.45" shape-rendering="geometricPrecision" transform="matrix(1,0,0,1,-125,248)" stroke-linecap="butt">
      <rect fill="none" x="461.75" width="120" height="30" y="86.0195" clip-path="url(#clipPath2)"/>
      <text x="502.8477" xml:space="preserve" y="105.1738" clip-path="url(#clipPath2)" font-family="sans-serif" stroke="none">delete</text>
    </g>
    <g fill="rgb(255,204,0)" text-rendering="geometricPrecision" shape-rendering="geometricPrecision" transform="matrix(1,0,0,1,-125,248)" stroke="rgb(255,204,0)">
      <path d="M916.25 -173.6914 L967.25 -219.6914 L1018.25 -173.6914 L967.25 -127.6914 Z" fill-rule="evenodd" clip-path="url(#clipPath2)" stroke="none"/>
    </g>
    <g text-rendering="geometricPrecision" stroke-miterlimit="1.45" shape-rendering="geometricPrecision" transform="matrix(1,0,0,1,-125,248)" stroke-linecap="butt">
      <path fill="none" d="M916.25 -173.6914 L967.25 -219.6914 L1018.25 -173.6914 L967.25 -127.6914 Z" fill-rule="evenodd" clip-path="url(#clipPath2)"/>
      <text x="950.9785" xml:space="preserve" y="-169.5371" clip-path="url(#clipPath2)" font-family="sans-serif" stroke="none">sure?</text>
    </g>
    <g fill="rgb(255,204,153)" text-rendering="geometricPrecision" shape-rendering="geometricPrecision" transform="matrix(1,0,0,1,-125,248)" stroke="rgb(255,204,153)">
      <rect x="677.5" width="107" height="30" y="-167.9414" clip-path="url(#clipPath2)" stroke="none"/>
    </g>
    <g text-rendering="geometricPrecision" stroke-miterlimit="1.45" shape-rendering="geometricPrecision" transform="matrix(1,0,0,1,-125,248)" stroke-linecap="butt">
      <rect fill="none" x="677.5" width="107" height="30" y="-167.9414" clip-path="url(#clipPath2)"/>
      <text x="708.084" xml:space="preserve" y="-148.7871" clip-path="url(#clipPath2)" font-family="sans-serif" stroke="none">remove</text>
      <path fill="none" d="M264.3557 111.7891 L439.1396 58.1258" clip-path="url(#clipPath2)"/>
      <path d="M446.7872 55.7778 L433.8482 54.5201 L438.1836 58.4193 L436.7833 64.0796 Z" clip-path="url(#clipPath2)" stroke="none"/>
      <path fill="none" d="M1020 95.0535 L742.8607 41.1179" clip-path="url(#clipPath2)"/>
      <path d="M735.008 39.5896 L745.8318 46.7899 L743.8422 41.3089 L747.7422 36.9741 Z" clip-path="url(#clipPath2)" stroke="none"/>
      <path fill="none" d="M1062.2078 408.9023 L738.443 135.9482" clip-path="url(#clipPath2)"/>
      <path d="M732.3266 130.7917 L738.2784 142.3492 L739.2075 136.5928 L744.724 134.7037 Z" clip-path="url(#clipPath2)" stroke="none"/>
      <path fill="none" d="M480.4709 314.3051 L456.238 138.9878" clip-path="url(#clipPath2)"/>
      <path d="M455.1427 131.0631 L451.8328 143.6347 L456.375 139.9783 L461.7386 142.2655 Z" clip-path="url(#clipPath2)" stroke="none"/>
      <text x="456.9363" xml:space="preserve" y="294.2559" clip-path="url(#clipPath2)" font-family="sans-serif" stroke="none">no</text>
      <path fill="none" d="M702.3585 -41.4805 L997.4561 63.0195" clip-path="url(#clipPath2)"/>
      <path d="M1004.9973 65.69 L995.3546 56.9711 L996.5135 62.6857 L992.0165 66.3975 Z" clip-path="url(#clipPath2)" stroke="none"/>
      <path fill="none" d="M461.75 -8.4165 L405.5625 -13.7412 L383.2822 -15.2674 L363.9727 -15.3417 L347.6338 -13.964 L340.5784 -12.7307 L334.2656 -11.1344 L328.6956 -9.1751 L323.8682 -6.8528 L319.7834 -4.1675 L316.4414 -1.1192 L313.842 2.292 L311.9854 6.0663 L310.8713 10.2035 L310.5 14.7037 L310.5 23.0268 L310.9929 27.4761 L312.4714 31.4609 L314.9356 34.9809 L318.3856 38.0363 L322.8212 40.627 L328.2425 42.753 L334.6495 44.4144 L342.0422 45.6111 L350.4206 46.3432 L359.7847 46.6106 L381.4699 45.7513 L407.098 43.0334 L436.6688 38.4568 L438.84 38.0778" clip-path="url(#clipPath2)"/>
      <path d="M446.7208 36.7022 L434.0398 33.8401 L437.8549 38.2498 L435.7593 43.6912 Z" clip-path="url(#clipPath2)" stroke="none"/>
      <path fill="none" d="M519.6478 116.0195 L492.9602 306.4401" clip-path="url(#clipPath2)"/>
      <path d="M491.8499 314.3627 L498.467 303.1728 L493.099 305.4498 L488.5638 301.7849 Z" clip-path="url(#clipPath2)" stroke="none"/>
      <path fill="none" d="M686.9579 -17.7305 L928.747 -152.2674" clip-path="url(#clipPath2)"/>
      <path d="M935.7377 -156.1572 L922.8206 -154.6917 L927.8732 -151.7812 L927.6828 -145.9534 Z" clip-path="url(#clipPath2)" stroke="none"/>
      <path fill="none" d="M926.332 -182.762 L746.2875 -222.6736 L724.4398 -227.0445 L704.0938 -230.1379 L685.2495 -231.954 L667.9066 -232.4927 L652.0654 -231.7539 L637.7259 -229.7378 L624.8879 -226.4443 L613.5515 -221.8734 L603.7168 -216.0251 L595.3837 -208.8994 L588.5521 -200.4963 L583.2222 -190.8158 L579.3939 -179.8579 L577.0673 -167.6227 L576.2422 -154.11 L576.9187 -139.3199 L579.0814 -115.9429" clip-path="url(#clipPath2)"/>
      <path d="M579.8183 -107.9769 L583.6917 -120.3865 L578.9893 -116.9386 L573.7341 -119.4653 Z" clip-path="url(#clipPath2)" stroke="none"/>
      <text x="894.3027" xml:space="preserve" y="-214.7794" clip-path="url(#clipPath2)" font-family="sans-serif" stroke="none">no</text>
      <path fill="none" d="M920.7902 -169.6108 L792.4693 -158.3403" clip-path="url(#clipPath2)"/>
      <path d="M784.5 -157.6404 L796.8915 -153.7095 L793.4655 -158.4278 L796.0165 -163.6711 Z" clip-path="url(#clipPath2)" stroke="none"/>
      <text x="883.3887" xml:space="preserve" y="-175.1528" clip-path="url(#clipPath2)" font-family="sans-serif" stroke="none">yes</text>
      <path fill="none" d="M718.2211 -137.9414 L697.8218 -113.9964" clip-path="url(#clipPath2)"/>
      <path d="M692.6337 -107.9067 L704.2218 -113.7987 L698.4703 -114.7576 L696.6097 -120.2837 Z" clip-path="url(#clipPath2)" stroke="none"/>
    </g>
    <g fill="rgb(245,245,245)" text-rendering="geometricPrecision" shape-rendering="geometricPrecision" transform="matrix(1,0,0,1,-125,248)" stroke="rgb(245,245,245)">
      <rect x="634.5" y="399.0977" clip-path="url(#clipPath2)" width="150" rx="4" ry="4" height="135.2109" stroke="none"/>
      <rect x="634.5" y="399.0977" clip-path="url(#clipPath2)" fill="rgb(235,235,235)" width="150" height="21.4609" stroke="none"/>
    </g>
    <g font-size="15px" stroke-linecap="butt" transform="matrix(1,0,0,1,-125,248)" text-rendering="geometricPrecision" font-family="sans-serif" shape-rendering="geometricPrecision" stroke-miterlimit="1.45">
      <text x="729.3481" xml:space="preserve" y="415.021" clip-path="url(#clipPath2)" stroke="none">choose</text>
      <rect x="634.5" y="399.0977" clip-path="url(#clipPath2)" fill="none" width="150" stroke-dasharray="6,2" rx="4" ry="4" height="135.2109"/>
    </g>
    <g fill="rgb(204,255,255)" text-rendering="geometricPrecision" shape-rendering="geometricPrecision" transform="matrix(1,0,0,1,-125,248)" stroke="rgb(204,255,255)">
      <rect x="649.5" width="120" height="30" y="435.5586" clip-path="url(#clipPath2)" stroke="none"/>
    </g>
    <g text-rendering="geometricPrecision" stroke-miterlimit="1.45" shape-rendering="geometricPrecision" transform="matrix(1,0,0,1,-125,248)" stroke-linecap="butt">
      <rect fill="none" x="649.5" width="120" height="30" y="435.5586" clip-path="url(#clipPath2)"/>
      <text x="691.2627" xml:space="preserve" y="454.7129" clip-path="url(#clipPath2)" font-family="sans-serif" stroke="none">item[]</text>
    </g>
    <g fill="rgb(204,255,255)" text-rendering="geometricPrecision" shape-rendering="geometricPrecision" transform="matrix(1,0,0,1,-125,248)" stroke="rgb(204,255,255)">
      <rect x="649.5" width="120" height="30" y="489.3086" clip-path="url(#clipPath2)" stroke="none"/>
    </g>
    <g text-rendering="geometricPrecision" stroke-miterlimit="1.45" shape-rendering="geometricPrecision" transform="matrix(1,0,0,1,-125,248)" stroke-linecap="butt">
      <rect fill="none" x="649.5" width="120" height="30" y="489.3086" clip-path="url(#clipPath2)"/>
      <text x="690.0645" xml:space="preserve" y="508.4629" clip-path="url(#clipPath2)" font-family="sans-serif" stroke="none">cancel</text>
    </g>
    <g fill="rgb(255,204,153)" text-rendering="geometricPrecision" shape-rendering="geometricPrecision" transform="matrix(1,0,0,1,-125,248)" stroke="rgb(255,204,153)">
      <rect x="814.5" width="107" height="30" y="434.8047" clip-path="url(#clipPath2)" stroke="none"/>
    </g>
    <g text-rendering="geometricPrecision" stroke-miterlimit="1.45" shape-rendering="geometricPrecision" transform="matrix(1,0,0,1,-125,248)" stroke-linecap="butt">
      <rect fill="none" x="814.5" width="107" height="30" y="434.8047" clip-path="url(#clipPath2)"/>
      <text x="857.3887" xml:space="preserve" y="453.959" clip-path="url(#clipPath2)" font-family="sans-serif" stroke="none">link</text>
      <path fill="none" d="M661.7443 56.0195 L700.7148 391.1533" clip-path="url(#clipPath2)"/>
      <path d="M701.6389 399.0997 L705.2193 386.6025 L700.5993 390.16 L695.2862 387.7576 Z" clip-path="url(#clipPath2)" stroke="none"/>
      <path fill="none" d="M649.5 504.3086 L628.2375 504.3086 L620.2375 503.4424 L612.8593 500.8438 L606.1029 496.5128 L599.9683 490.4495 L594.4556 482.6537 L589.5648 473.1255 L585.2957 461.865 L581.6484 448.872 L578.623 434.1467 L576.2194 417.6889 L574.4376 399.4988 L573.2777 379.5763 L572.7396 357.9214 L572.8233 334.5341 L573.5288 309.4144 L574.8562 282.5623 L583.342 138.9911" clip-path="url(#clipPath2)"/>
      <path d="M583.814 131.005 L578.1147 142.6891 L583.283 139.9893 L588.0973 143.2791 Z" clip-path="url(#clipPath2)" stroke="none"/>
      <path fill="none" d="M769.5 450.2732 L806.5001 450.0972" clip-path="url(#clipPath2)"/>
      <path d="M814.5 450.0592 L802.4764 445.1163 L805.5001 450.102 L802.5239 455.1161 Z" clip-path="url(#clipPath2)" stroke="none"/>
      <path fill="none" d="M860.9041 434.8047 L720.6279 138.2735" clip-path="url(#clipPath2)"/>
      <path d="M717.207 131.0418 L717.8186 144.0274 L721.0555 139.1774 L726.8582 139.7512 Z" clip-path="url(#clipPath2)" stroke="none"/>
    </g>
  </g>
</svg>
